<svg width="39" height="39" viewBox="0 0 39 39" fill="none" xmlns="http://www.w3.org/2000/svg">
<path d="M19.89 0.877476C18.0765 1.12448 16.0225 1.77447 14.651 2.54147L14.079 2.85997L13.429 2.75597C12.389 2.59347 9.91896 2.56097 8.83346 2.69747C6.40246 3.00297 4.42646 3.86747 2.97046 5.25847C2.40496 5.79797 1.77446 6.60397 1.44946 7.20197L1.23496 7.58547L1.96946 7.37747C3.46446 6.94197 4.73196 6.84447 5.29746 7.12397C5.43396 7.18897 5.55746 7.27997 5.57046 7.31897C5.58346 7.35797 5.43396 7.45547 5.23246 7.52697C4.71246 7.72847 4.04296 8.13147 3.47096 8.59297C1.99546 9.78247 0.974955 11.6155 0.571955 13.819C0.461455 14.456 0.435455 14.846 0.428955 16.0225C0.428955 16.8675 0.461455 17.706 0.513455 18.07C0.916455 21.0145 1.83296 23.933 3.45796 27.495C4.03646 28.756 4.12746 28.912 4.04946 28.47C4.02346 28.3075 3.99746 27.1115 3.99746 25.805C4.00396 23.9525 4.02346 23.244 4.11446 22.5615C4.34846 20.7155 4.70596 19.344 5.25196 18.174L5.55746 17.5305L5.66796 18.031C5.98646 19.435 7.11746 20.774 8.61246 21.5345L8.94396 21.697L9.06096 21.138C9.53546 18.8045 10.8615 16.627 12.584 15.3595C13.7085 14.534 15.34 13.8775 16.6075 13.7475C17.8295 13.624 19.3245 14.326 20.475 15.574C21.788 16.9975 23.1205 19.409 23.959 21.892C24.0955 22.2755 24.219 22.607 24.2385 22.633C24.258 22.659 24.622 22.425 25.038 22.113C27.1375 20.5465 28.5935 18.928 29.3865 17.2575C29.809 16.38 29.9715 15.7365 29.9845 14.9045C29.991 14.5015 30.0235 14.235 30.0625 14.235C30.2445 14.235 30.9985 14.768 31.356 15.145C33.0655 16.9585 34.5865 21.281 35.503 26.936L35.646 27.833L35.7955 27.651C35.8735 27.547 36.114 27.1245 36.3285 26.715C37.284 24.869 37.869 23.01 38.233 20.67C38.3565 19.8445 38.376 19.474 38.376 17.68C38.3825 16.042 38.3565 15.4765 38.2655 14.8655C38.064 13.5395 37.6025 12.1485 36.855 10.647C34.2095 5.34947 29.4775 1.82648 23.8225 0.968475C22.711 0.792974 20.8195 0.753975 19.89 0.877476Z" fill="black"/>
<path d="M14.4365 16.237L14.157 16.4775L15.145 17.5825C15.691 18.1935 16.224 18.7785 16.328 18.889L16.5165 19.0905L15.327 19.617C14.6705 19.9095 14.1375 20.176 14.1375 20.2085C14.1375 20.2865 17.1015 23.53 17.173 23.53C17.2055 23.53 17.355 23.413 17.5045 23.2765L17.7775 23.0165L17.511 22.737C16.874 22.074 15.47 20.5205 15.47 20.4815C15.47 20.462 15.9965 20.2085 16.64 19.929C17.2835 19.6495 17.81 19.396 17.81 19.37C17.81 19.305 14.8265 15.99 14.768 15.99C14.742 15.99 14.5925 16.1005 14.4365 16.237Z" fill="black"/>
<path d="M10.7055 23.1075C7.53998 23.7055 5.25198 26.3185 5.09598 29.51C4.94648 32.5455 6.85098 35.334 9.73048 36.2895C10.6145 36.582 11.3945 36.686 12.285 36.6405C15.795 36.4325 18.5315 33.67 18.7005 30.134C18.7395 29.432 18.7525 29.3475 18.9085 29.172C19.1165 28.9185 19.4155 28.795 19.8055 28.795C20.1955 28.795 20.527 28.9575 20.7155 29.2435C20.839 29.4255 20.865 29.5555 20.865 29.965C20.865 32.5455 22.542 35.0415 24.9795 36.088C25.9675 36.517 26.52 36.621 27.7225 36.621C28.5675 36.6145 28.8535 36.5885 29.263 36.478C31.3365 35.9125 32.864 34.6905 33.774 32.8575C34.294 31.8045 34.4695 31.083 34.476 29.9C34.476 29.3475 34.4435 28.795 34.398 28.5675C33.8195 25.909 31.954 23.907 29.406 23.2245C28.834 23.0685 28.6455 23.049 27.69 23.049C26.741 23.049 26.546 23.0685 25.9935 23.218C24.453 23.634 23.1465 24.518 22.217 25.766C21.801 26.325 21.3135 27.274 21.177 27.7745C21.1315 27.9435 21.0795 28.0735 21.06 28.0605C20.5335 27.755 20.215 27.664 19.7275 27.6575C19.292 27.6575 19.149 27.6835 18.85 27.833C18.655 27.9305 18.4925 28.002 18.4925 27.9955C18.486 27.989 18.4015 27.7615 18.304 27.495C17.5045 25.3565 15.769 23.79 13.5915 23.2245C12.792 23.0165 11.466 22.9645 10.7055 23.1075ZM13.2795 24.336C15.3855 24.869 17.0105 26.559 17.4525 28.665C17.5045 28.9185 17.55 29.458 17.55 29.861C17.55 32.032 16.341 33.9625 14.3975 34.905C13.4355 35.373 13.0845 35.451 11.9275 35.4575C10.7835 35.4575 10.361 35.3665 9.44448 34.931C8.02098 34.2485 6.98098 33.0395 6.46098 31.46C6.29198 30.953 6.27898 30.823 6.27898 29.8675C6.27248 28.6455 6.34398 28.3205 6.82498 27.3325C7.54648 25.8505 8.88548 24.752 10.4845 24.3425C11.336 24.1215 12.4215 24.1215 13.2795 24.336ZM29.068 24.336C31.278 24.895 32.916 26.6955 33.2865 28.951C33.3775 29.5555 33.332 30.6865 33.1825 31.226C32.6495 33.2085 31.174 34.723 29.2175 35.3015C28.561 35.4965 27.3065 35.542 26.5785 35.399C25.558 35.191 24.5895 34.6905 23.816 33.969C22.984 33.202 22.3535 32.0905 22.1195 30.979C22.0025 30.42 21.996 29.3735 22.1 28.8015C22.503 26.611 24.2905 24.7585 26.468 24.284C27.1635 24.128 28.353 24.154 29.068 24.336Z" fill="black"/>
</svg>
