<svg width="20" height="52" viewBox="0 0 20 52" fill="none" xmlns="http://www.w3.org/2000/svg">
<path d="M7.2782 7.56092C7.2782 14.7118 7.28754 15.1118 7.4464 15.0618C7.5305 15.0318 8.26872 14.8218 9.0817 14.5917L10.5488 14.1717V13.4716C10.5488 12.8415 10.5862 12.6915 10.9319 12.0114C12.1935 9.54115 14.0156 7.90096 16.0247 7.45091C16.3798 7.3709 16.8564 7.30089 17.0807 7.30089C17.4171 7.30089 17.5386 7.24088 17.8002 6.96085C18.0805 6.66082 18.1179 6.5608 18.1179 6.12075C18.1179 5.6907 18.0712 5.57069 17.8376 5.31066C17.4731 4.92061 17.1087 4.85061 16.1929 5.00062C14.3614 5.29066 12.642 6.21076 11.1936 7.67093L10.5488 8.32101V4.16053V4.1008e-05H8.9135H7.2782V7.56092Z" fill="black"/>
<path d="M8.91354 15.5519C5.24112 16.612 4.97947 16.702 4.73651 16.992C4.2319 17.6021 4.52158 18.6122 5.25046 18.7522C5.46539 18.7922 6.6428 18.4922 9.39011 17.7121C11.502 17.102 13.3429 16.562 13.4737 16.512C13.7634 16.392 14.0998 15.8619 14.0998 15.5219C14.0998 14.9618 13.5671 14.3917 13.0532 14.4117C12.9317 14.4117 11.0721 14.9218 8.91354 15.5519Z" fill="black"/>
<path d="M12.0906 17.8521C11.6794 17.9822 9.91329 18.4922 8.1752 18.9923C5.86708 19.6524 4.94197 19.9624 4.78311 20.1224C4.51212 20.3924 4.41867 20.9125 4.57753 21.3125C4.69901 21.6526 5.15689 22.0026 5.45592 22.0026C5.55871 22.0026 7.40894 21.5026 9.56754 20.8825C13.2026 19.8424 13.511 19.7424 13.8006 19.4423C14.3052 18.9023 14.1838 18.1122 13.539 17.7521C13.1932 17.5621 12.997 17.5721 12.0906 17.8521Z" fill="black"/>
<path d="M9.03504 21.9526C6.88578 22.5727 5.02621 23.1528 4.90473 23.2328C4.57767 23.4628 4.42816 24.0129 4.56833 24.4629C4.68981 24.853 5.129 25.203 5.50278 25.203C5.63361 25.203 7.52122 24.6829 9.70785 24.0629C13.184 23.0628 13.7073 22.8827 13.8849 22.6527C14.1372 22.3427 14.1746 21.6626 13.9503 21.3226C13.7821 21.0625 13.3429 20.8025 13.0999 20.8125C13.0065 20.8225 11.1749 21.3326 9.03504 21.9526Z" fill="black"/>
<path d="M11.2777 24.5229L10.2871 24.8329L11.1936 26.0431C14.6884 30.7336 16.9405 35.1441 17.6226 38.6045C17.8469 39.7747 17.8469 41.9949 17.6133 42.955C16.7816 46.4354 13.8381 48.6257 9.98811 48.6157C4.92334 48.6157 1.69946 44.9753 2.21341 39.8247C2.50309 36.9143 3.8674 33.5539 6.43717 29.4535C7.13801 28.3233 8.55839 26.2631 9.11906 25.563C9.28727 25.343 9.40874 25.153 9.39006 25.133C9.37137 25.113 8.59577 25.303 7.67065 25.573L5.99797 26.0431L5.28778 27.1032C2.71802 30.9336 0.933203 34.8441 0.260393 38.1045C-0.0199449 39.4646 -0.085357 41.9449 0.120224 43.1451C0.671555 46.2754 2.38161 48.6357 5.0822 50.0158C8.20329 51.616 11.8664 51.596 14.9875 49.9558C19.1925 47.7556 20.8839 43.135 19.557 37.4844C18.6973 33.804 16.4826 29.4235 13.4082 25.273C12.9036 24.6029 12.5485 24.2028 12.4457 24.2128C12.3523 24.2228 11.829 24.3629 11.2777 24.5229Z" fill="black"/>
</svg>
